HIERARCHY
ROOT Hips
{
	OFFSET 0.000000 0.000000 0.000000
	CHANNELS 6 Xposition Yposition Zposition Zrotation Yrotation Xrotation 
	JOINT LHipJoint
	{
		OFFSET 0.000000 0.000000 0.000000
		CHANNELS 3 Zrotation Yrotation Xrotation
		JOINT LeftUpLeg
		{
			OFFSET 1.363060 -1.794630 0.839290
			CHANNELS 3 Zrotation Yrotation Xrotation
			JOINT LeftLeg
			{
				OFFSET 2.448110 -6.726130 0.000000
				CHANNELS 3 Zrotation Yrotation Xrotation
				JOINT LeftFoot
				{
					OFFSET 2.562200 -7.039590 0.000000
					CHANNELS 3 Zrotation Yrotation Xrotation
					JOINT LeftToeBase
					{
						OFFSET 0.157640 -0.433110 2.322550
						CHANNELS 3 Zrotation Yrotation Xrotation
						End Site
						{
							OFFSET 0.000000 0.000000 0.000000
						}
					}
				}
			}
		}
	}
	JOINT RHipJoint
	{
		OFFSET 0.000000 0.000000 0.000000
		CHANNELS 3 Zrotation Yrotation Xrotation
		JOINT RightUpLeg
		{
			OFFSET -1.305520 -1.794630 0.839290
			CHANNELS 3 Zrotation Yrotation Xrotation
			JOINT RightLeg
			{
				OFFSET -2.542530 -6.985550 0.000000
				CHANNELS 3 Zrotation Yrotation Xrotation
				JOINT RightFoot
				{
					OFFSET -2.568260 -7.056230 0.000000
					CHANNELS 3 Zrotation Yrotation Xrotation
					JOINT RightToeBase
					{
						OFFSET -0.164730 -0.452590 2.363150
						CHANNELS 3 Zrotation Yrotation Xrotation
						End Site
						{
							OFFSET 0.000000 0.000000 0.000000
						}
					}
				}
			}
		}
	}
	JOINT LowerBack
	{
		OFFSET 0.000000 0.000000 0.000000
		CHANNELS 3 Zrotation Yrotation Xrotation
		JOINT Spine
		{
			OFFSET 0.028270 2.035590 -0.193380
			CHANNELS 3 Zrotation Yrotation Xrotation
			JOINT Spine1
			{
				OFFSET 0.056720 2.048850 -0.042750
				CHANNELS 3 Zrotation Yrotation Xrotation
				JOINT Neck
				{
					OFFSET 0.000000 0.000000 0.000000
					CHANNELS 3 Zrotation Yrotation Xrotation
					JOINT Neck1
					{
						OFFSET -0.054170 1.746240 0.172020
						CHANNELS 3 Zrotation Yrotation Xrotation
						JOINT Head
						{
							OFFSET 0.104070 1.761360 -0.123970
							CHANNELS 3 Zrotation Yrotation Xrotation
							End Site
							{
								OFFSET 0.000000 0.000000 0.000000
							}
						}
					}
				}
				JOINT LeftShoulder
				{
					OFFSET 0.000000 0.000000 0.000000
					CHANNELS 3 Zrotation Yrotation Xrotation
					JOINT LeftArm
					{
						OFFSET 3.362410 1.200890 -0.311210
						CHANNELS 3 Zrotation Yrotation Xrotation
						JOINT LeftForeArm
						{
							OFFSET 4.983000 -0.000000 -0.000000
							CHANNELS 3 Zrotation Yrotation Xrotation
							JOINT LeftHand
							{
								OFFSET 3.483560 -0.000000 -0.000000
								CHANNELS 3 Zrotation Yrotation Xrotation
								JOINT LeftFingerBase
								{
									OFFSET 0.000000 0.000000 0.000000
									CHANNELS 3 Zrotation Yrotation Xrotation
									JOINT LeftHandIndex1
									{
										OFFSET 0.715260 -0.000000 -0.000000
										CHANNELS 3 Zrotation Yrotation Xrotation
										End Site
										{
											OFFSET 0.000000 0.000000 0.000000
										}
									}
								}
								JOINT LThumb
								{
									OFFSET 0.000000 0.000000 0.000000
									CHANNELS 3 Zrotation Yrotation Xrotation
									End Site
									{
										OFFSET 0.000000 0.000000 0.000000
									}
								}
							}
						}
					}
				}
				JOINT RightShoulder
				{
					OFFSET 0.000000 0.000000 0.000000
					CHANNELS 3 Zrotation Yrotation Xrotation
					JOINT RightArm
					{
						OFFSET -3.136600 1.374050 -0.404650
						CHANNELS 3 Zrotation Yrotation Xrotation
						JOINT RightForeArm
						{
							OFFSET -5.241900 -0.000000 -0.000000
							CHANNELS 3 Zrotation Yrotation Xrotation
							JOINT RightHand
							{
								OFFSET -3.444170 -0.000000 -0.000000
								CHANNELS 3 Zrotation Yrotation Xrotation
								JOINT RightFingerBase
								{
									OFFSET 0.000000 0.000000 0.000000
									CHANNELS 3 Zrotation Yrotation Xrotation
									JOINT RightHandIndex1
									{
										OFFSET -0.622530 -0.000000 -0.000000
										CHANNELS 3 Zrotation Yrotation Xrotation
										End Site
										{
											OFFSET 0.000000 0.000000 0.000000
										}
									}
								}
								JOINT RThumb
								{
									OFFSET 0.000000 0.000000 0.000000
									CHANNELS 3 Zrotation Yrotation Xrotation
									End Site
									{
										OFFSET 0.000000 0.000000 0.000000
									}
								}
							}
						}
					}
				}
			}
		}
	}
}
MOTION
Frames: 10
Frame Time: 0.008333
-3.028900 17.572381 10.889147 -53.408989 84.852306 -50.771141 -4.677165 -2.565723 -0.265464 -9.231418 -3.570184 -10.673511 2.348132 11.886870 32.434452 1.293227 -8.200871 -13.115524 0.373100 3.923100 10.860500 3.508775 2.855929 -1.099324 20.186439 -4.564942 -14.195057 -3.268366 -12.757389 35.435681 -1.535683 5.453910 -13.942579 -0.315600 -3.611100 9.984900 3.185212 0.713295 6.355529 2.269947 1.326171 -2.417349 4.303697 0.740369 0.733285 -8.910216 -2.417300 -11.686276 3.231375 -0.589974 24.169808 2.993000 -0.933300 15.213400 -0.010759 -1.257689 0.402504 -90.609747 5.670413 15.961208 15.583846 -26.709189 -3.762278 0.122896 0.606284 -1.940247 16.791880 20.135181 5.707000 -7.125000 0.000000 0.000000 -11.571300 49.931800 -1.423700 1.923272 1.167333 -0.274054 80.406634 5.221473 21.884652 -17.181977 26.324929 -4.448850 0.376312 -0.149630 -14.611672 -23.783256 13.795971 -6.188700 7.125000 0.000000 0.000000 2.270700 -14.686000 1.622200 
-3.026680 17.573894 10.888542 -52.501677 84.915444 -49.808293 -4.681348 -2.571240 -0.261745 -9.325541 -3.405246 -10.769431 2.334352 11.864071 32.360473 1.286306 -8.256088 -13.003015 0.334300 3.715900 10.278600 3.507634 2.857287 -1.100580 20.063462 -4.532150 -14.254941 -3.287043 -12.775581 35.507833 -1.565406 5.609261 -14.036690 -0.301100 -3.528100 9.752800 3.074976 0.692577 6.307789 2.253902 1.288768 -2.429409 4.314175 0.720133 0.737254 -8.982077 -2.413626 -11.756029 3.259441 -0.560959 24.194742 3.027800 -0.932000 15.251900 -0.021595 -1.256752 0.400876 -90.470527 5.668860 16.466640 15.841918 -27.042345 -3.869106 0.120064 0.613110 -2.251573 17.029739 20.532359 5.903100 -7.125000 0.000000 0.000000 -11.481300 50.362500 -1.535100 1.922020 1.167955 -0.277065 80.407671 5.197276 21.928714 -17.106502 26.230747 -4.413278 0.375750 -0.149619 -14.899800 -23.624406 13.872517 -6.175800 7.125000 0.000000 0.000000 2.385200 -14.620700 1.707400 
-3.028093 17.575609 10.889652 -51.426495 85.111243 -48.680063 -4.693167 -2.573576 -0.261110 -9.527325 -3.423710 -10.827737 2.318869 11.841624 32.284508 1.281158 -8.389021 -12.871886 0.328300 3.682300 10.184700 3.508947 2.860099 -1.098991 19.828904 -4.473717 -14.321769 -3.307898 -12.792215 35.585161 -1.586658 5.804332 -13.969081 -0.393100 -4.025700 11.149100 2.854344 0.663476 6.305139 2.216169 1.235933 -2.455998 4.322869 0.691231 0.674229 -9.046533 -2.401833 -11.734452 3.350209 -0.539778 24.184307 3.095000 -0.924600 15.245800 -0.036248 -1.254396 0.398147 -90.346878 5.622336 16.863306 16.033511 -27.288852 -3.951518 0.126400 0.618069 -2.483176 17.618087 20.746659 6.178200 -7.125000 0.000000 0.000000 -10.995600 50.667200 -1.551700 1.911948 1.172830 -0.279001 80.450017 5.117855 22.024238 -17.041975 26.147274 -4.382301 0.383511 -0.148763 -15.132920 -23.827073 13.836340 -6.221700 7.125000 0.000000 0.000000 2.240400 -14.632500 1.603000 
-3.027487 17.574298 10.887836 -50.308593 85.226474 -47.580494 -4.707071 -2.571114 -0.256197 -9.690660 -3.508280 -10.749743 2.304371 11.828862 32.230051 1.279339 -8.383345 -12.879673 0.333800 3.713200 10.271100 3.505052 2.860771 -1.097210 19.654237 -4.493341 -14.328718 -3.322414 -12.805741 35.640781 -1.599745 5.908098 -13.953280 -0.454500 -4.325100 11.993200 2.674328 0.639053 6.370117 2.204962 1.197196 -2.475203 4.371823 0.669596 0.595656 -9.020766 -2.367996 -11.733095 3.336853 -0.489447 24.214450 3.084100 -0.901000 15.265200 -0.040996 -1.258746 0.396271 -90.180729 5.605349 17.435686 16.213909 -27.518038 -4.025876 0.127817 0.616408 -2.808826 17.906087 20.566350 6.231300 -7.125000 0.000000 0.000000 -10.658400 50.533200 -1.467800 1.914446 1.173063 -0.284064 80.442354 4.975351 22.145773 -16.997872 26.085322 -4.359541 0.395229 -0.143104 -15.263650 -24.179539 13.564570 -6.207300 7.125000 0.000000 0.000000 1.973500 -14.885900 1.401200 
-3.020425 17.572785 10.885213 -50.155702 85.118710 -47.449282 -4.710386 -2.567106 -0.245949 -9.643246 -3.489407 -10.640458 2.292286 11.817494 32.183291 1.284944 -8.246956 -13.031502 0.329400 3.688800 10.202800 3.498049 2.859426 -1.096436 19.709332 -4.629963 -14.351911 -3.332873 -12.818828 35.682030 -1.614224 6.027593 -13.941156 -0.440300 -4.257500 11.802200 2.687432 0.619613 6.377723 2.238038 1.175117 -2.487970 4.446464 0.658526 0.555308 -8.986424 -2.311126 -11.709534 3.269380 -0.402040 24.244637 3.042800 -0.866000 15.267500 -0.035169 -1.264377 0.396208 -90.173923 5.635097 17.720569 16.405829 -27.760589 -4.103473 0.117890 0.615280 -2.870524 17.527182 20.528499 6.083400 -7.125000 0.000000 0.000000 -11.003300 50.436000 -1.489800 1.930574 1.167448 -0.289808 80.375387 4.848008 22.161934 -16.882073 25.939095 -4.305400 0.396427 -0.142526 -15.067507 -24.156508 13.427676 -6.140800 7.125000 0.000000 0.000000 1.978800 -15.038400 1.398400 
-3.011748 17.574601 10.884002 -49.787753 85.067314 -46.991781 -4.715838 -2.569277 -0.244430 -9.634134 -3.458143 -10.688079 2.285820 11.812279 32.166184 1.289640 -8.091029 -13.186516 0.286900 3.444500 9.518800 3.494720 2.859474 -1.095414 19.716890 -4.685867 -14.452228 -3.334856 -12.816372 35.682395 -1.620580 6.128551 -13.859867 -0.426200 -4.189900 11.611600 2.650819 0.607862 6.231791 2.253604 1.150021 -2.505764 4.507160 0.646230 0.576002 -8.993024 -2.260146 -11.655101 3.248351 -0.329664 24.220457 3.034600 -0.838300 15.222800 -0.033837 -1.262030 0.396178 -90.219773 5.616402 17.767969 16.586644 -27.995204 -4.182921 0.116355 0.619778 -2.939372 17.615081 20.751692 6.180000 -7.125000 0.000000 0.000000 -10.994700 50.671000 -1.552600 1.940024 1.160663 -0.292807 80.354882 4.787320 22.049621 -16.730703 25.749846 -4.236081 0.397137 -0.142782 -14.885188 -24.085224 13.320476 -6.074100 7.125000 0.000000 0.000000 2.019600 -15.163600 1.421900 
-3.009428 17.576921 10.885112 -49.004596 85.135166 -46.116078 -4.726206 -2.571257 -0.249658 -9.716775 -3.568386 -10.761184 2.285712 11.814225 32.176236 1.287870 -8.061855 -13.195943 0.293100 3.481600 9.622600 3.498614 2.858714 -1.093561 19.640793 -4.540318 -14.494639 -3.324171 -12.803788 35.648529 -1.595120 5.793749 -14.067448 -0.313100 -3.597300 9.946300 2.515590 0.621422 6.151973 2.235061 1.155279 -2.527430 4.531800 0.647608 0.562829 -9.038428 -2.273162 -11.657065 3.291292 -0.343551 24.204740 3.066700 -0.846700 15.218300 -0.043535 -1.258383 0.394318 -90.116831 5.549046 18.172307 16.819271 -28.288490 -4.284375 0.115917 0.625196 -3.372023 17.978343 20.989180 6.383700 -7.125000 0.000000 0.000000 -10.729000 50.965300 -1.592500 1.937732 1.161676 -0.295156 80.445284 4.735214 21.765845 -16.590784 25.568450 -4.172391 0.405053 -0.144227 -14.746298 -24.326052 13.201680 -6.092300 7.125000 0.000000 0.000000 1.841700 -15.260900 1.292600 
-3.009629 17.576013 10.886222 -49.769696 85.084797 -46.857622 -4.725924 -2.565942 -0.252919 -9.629612 -3.769070 -10.725069 2.289620 11.821364 32.206242 1.281980 -7.946142 -13.210729 0.336300 3.726800 10.309400 3.506156 2.854744 -1.090689 19.756914 -4.376757 -14.456169 -3.306167 -12.789426 35.592468 -1.565863 5.412111 -14.325523 -0.232300 -3.101800 8.562400 2.560523 0.600564 6.181696 2.249924 1.132246 -2.545572 4.548956 0.636592 0.506026 -9.062344 -2.261393 -11.656592 3.317514 -0.322122 24.203006 3.088500 -0.839700 15.220200 -0.046782 -1.259871 0.393413 -90.067707 5.491156 18.521062 17.058167 -28.577808 -4.382534 0.103293 0.624358 -3.649183 17.589787 20.982742 6.238600 -7.125000 0.000000 0.000000 -11.095600 50.896900 -1.629300 1.942577 1.162954 -0.299119 80.479363 4.620952 21.587291 -16.482811 25.431663 -4.124138 0.402715 -0.148818 -14.532951 -24.226361 13.269975 -6.095200 7.125000 0.000000 0.000000 1.916300 -15.195700 1.347800 
-3.004585 17.575912 10.885616 -51.530279 85.006870 -48.551369 -4.715850 -2.563630 -0.258132 -9.471820 -3.858668 -10.760089 2.303587 11.835915 32.267836 1.285503 -7.912061 -13.254942 0.323700 3.656700 10.112800 3.512721 2.853195 -1.085501 19.904823 -4.385010 -14.472293 -3.291424 -12.768159 35.516150 -1.577649 5.594999 -14.182102 -0.304600 -3.548300 9.809100 2.714249 0.556920 6.091668 2.270873 1.077091 -2.559510 4.508499 0.612149 0.514491 -8.905264 -2.218735 -11.617648 3.249243 -0.299159 24.200040 3.017200 -0.812300 15.195300 -0.041451 -1.258586 0.394154 -90.064806 5.382342 18.646548 17.197426 -28.746178 -4.439216 0.094119 0.620423 -3.534966 17.094089 20.873895 6.026000 -7.125000 0.000000 0.000000 -11.528100 50.711300 -1.641200 1.952512 1.155322 -0.303459 80.580007 4.517347 21.189854 -16.363839 25.285235 -4.072677 0.393854 -0.156889 -14.205902 -23.913731 13.504912 -6.109100 7.125000 0.000000 0.000000 2.151900 -14.974100 1.523900 
-2.996614 17.576618 10.881782 -52.933599 84.888621 -49.891590 -4.699735 -2.564868 -0.262149 -9.301729 -3.786140 -10.848413 2.326118 11.855350 32.347223 1.298135 -8.062229 -13.254962 0.296200 3.499300 9.672200 3.517018 2.853730 -1.082238 20.048195 -4.460979 -14.488111 -3.278333 -12.747160 35.439931 -1.597922 5.897305 -13.956750 -0.388900 -4.004400 11.089100 2.923127 0.535556 5.978323 2.267164 1.050576 -2.559515 4.362759 0.602940 0.570872 -8.660469 -2.169002 -11.616180 3.187722 -0.290498 24.200954 2.933200 -0.777900 15.180700 -0.042752 -1.253892 0.396158 -89.899792 5.308089 18.956466 17.360699 -28.949560 -4.513175 0.097580 0.622923 -3.579919 17.419650 21.104935 6.212300 -7.125000 0.000000 0.000000 -11.299700 50.994100 -1.687100 1.958073 1.147085 -0.305968 80.807079 4.465107 20.798251 -16.237016 25.123924 -4.016753 0.393790 -0.160722 -13.927282 -23.901306 13.504823 -6.106600 7.125000 0.000000 0.000000 2.160400 -14.973200 1.530000 
